<svg xmlns="http://www.w3.org/2000/svg" class="pokeball" viewBox="0 0 389 389"><path d="M363-192A170 170 0 0 1 194-22 170 170 0 0 1 24-191" style="fill:#f71b1b;fill-opacity:1;stroke-width:2.62971" transform="scale(1 -1)"/><path d="M195 156a37 37 0 0 0-37 37 37 37 0 0 0 0 5l-131 1a170 170 0 0 0 171 168 170 170 0 0 0 169-169H232a37 37 0 0 0 0-5 37 37 0 0 0-37-37z" style="fill:#fff;fill-opacity:1;stroke-width:2.62971;-inkscape-stroke:none;paint-order:fill markers stroke;stop-color:#000"/><path d="M389 195c-1-81-51-154-127-183S96 7 44 71c-51 62-59 153-17 223s124 106 204 92c91-17 156-98 158-189a20 20 0 0 0 0-2zM58 113c33-57 101-88 165-75 70 13 121 70 129 139h-95c-8-28-32-48-63-48-29 0-55 21-63 48H36a158 158 0 0 1 22-64zm167 82c-2 38-61 39-61 0 0-40 59-39 61 0zm24 149c-64 23-136 3-178-49a158 158 0 0 1-35-83h95c8 28 34 48 63 48 31 0 55-20 63-48h95c-7 59-46 112-103 132z"/></svg>